{
  "accessors": [
    {
      "bufferView": 2,
      "componentType": 5126,
      "count": 21608,
      "max": [
        3.0693728923797607,
        2.233933448791504,
        16.889095306396484
      ],
      "min": [
        -2.465350389480591,
        -2.169203281402588,
        0.053595565259456635
      ],
      "type": "VEC3"
    },
    {
      "bufferView": 2,
      "byteOffset": 259296,
      "componentType": 5126,
      "count": 21608,
      "max": [
        0.9999871850013733,
        0.9999986886978149,
        0.9970038533210754
      ],
      "min": [
        -0.9999638795852661,
        -0.9999142289161682,
        -1.0
      ],
      "type": "VEC3"
    },
    {
      "bufferView": 3,
      "componentType": 5126,
      "count": 21608,
      "max": [
        0.9999841451644897,
        0.999993622303009,
        0.9999997615814209,
        1.0
      ],
      "min": [
        -0.9999972581863403,
        -0.9999937415122986,
        -0.9999997615814209,
        1.0
      ],
      "type": "VEC4"
    },
    {
      "bufferView": 1,
      "componentType": 5126,
      "count": 21608,
      "max": [
        0.9998729228973389,
        0.9954832792282104
      ],
      "min": [
        0.0001220703125,
        0.0001325203338637948
      ],
      "type": "VEC2"
    },
    {
      "bufferView": 1,
      "byteOffset": 172864,
      "componentType": 5126,
      "count": 21608,
      "max": [
        0.9998729228973389,
        0.9954832792282104
      ],
      "min": [
        0.0001220703125,
        0.0001325203338637948
      ],
      "type": "VEC2"
    },
    {
      "bufferView": 0,
      "componentType": 5125,
      "count": 78384,
      "type": "SCALAR"
    }
  ],
  "asset": {
    "extras": {
      "author": "Christians - The Survey Company (https://sketchfab.com/ChristiansTheSurveyCompany)",
      "license": "SKETCHFAB Standard (https://sketchfab.com/licenses)",
      "source": "https://sketchfab.com/3d-models/graveyard-angel-statue-bf55c6686ae7454181fa33662e7eca29",
      "title": "Graveyard Angel Statue"
    },
    "generator": "Sketchfab-16.14.0",
    "version": "2.0"
  },
  "bufferViews": [
    {
      "buffer": 0,
      "byteLength": 313536,
      "name": "floatBufferViews",
      "target": 34963
    },
    {
      "buffer": 0,
      "byteLength": 345728,
      "byteOffset": 313536,
      "byteStride": 8,
      "name": "floatBufferViews",
      "target": 34962
    },
    {
      "buffer": 0,
      "byteLength": 518592,
      "byteOffset": 659264,
      "byteStride": 12,
      "name": "floatBufferViews",
      "target": 34962
    },
    {
      "buffer": 0,
      "byteLength": 345728,
      "byteOffset": 1177856,
      "byteStride": 16,
      "name": "floatBufferViews",
      "target": 34962
    }
  ],
  "buffers": [
    {
      "byteLength": 1523584,
      "uri": "scene.bin"
    }
  ],
  "extensionsUsed": [
    "KHR_materials_specular"
  ],
  "images": [
    {
      "uri": "textures/angel_26k_u1_v1_baseColor.jpeg"
    },
    {
      "uri": "textures/angel_26k_u1_v1_normal.png"
    }
  ],
  "materials": [
    {
      "doubleSided": true,
      "extensions": {
        "KHR_materials_specular": {
          "specularColorFactor": [
            1.0,
            1.0,
            1.0
          ],
          "specularFactor": 0.0
        }
      },
      "name": "angel_26k_u1_v1",
      "normalTexture": {
        "index": 1
      },
      "pbrMetallicRoughness": {
        "baseColorTexture": {
          "index": 0
        },
        "metallicFactor": 0.0,
        "roughnessFactor": 0.9710475308115225
      }
    }
  ],
  "meshes": [
    {
      "name": "angel_26k_angel_26k_u1_v1_0",
      "primitives": [
        {
          "attributes": {
            "NORMAL": 1,
            "POSITION": 0,
            "TANGENT": 2,
            "TEXCOORD_0": 3,
            "TEXCOORD_1": 4
          },
          "indices": 5,
          "material": 0,
          "mode": 4
        }
      ]
    }
  ],
  "nodes": [
    {
      "children": [
        1
      ],
      "matrix": [
        1.0,
        0.0,
        0.0,
        0.0,
        0.0,
        2.220446049250313e-16,
        -1.0,
        0.0,
        0.0,
        1.0,
        2.220446049250313e-16,
        0.0,
        0.0,
        0.0,
        0.0,
        1.0
      ],
      "name": "Sketchfab_model"
    },
    {
      "children": [
        2
      ],
      "matrix": [
        1.0,
        0.0,
        0.0,
        0.0,
        0.0,
        0.0,
        1.0,
        0.0,
        0.0,
        -1.0,
        0.0,
        0.0,
        0.0,
        0.0,
        0.0,
        1.0
      ],
      "name": "angel_26k.fbx"
    },
    {
      "children": [
        3
      ],
      "name": "RootNode"
    },
    {
      "children": [
        4
      ],
      "matrix": [
        1.0,
        0.0,
        0.0,
        0.0,
        0.0,
        2.220446049250313e-16,
        -1.0,
        0.0,
        0.0,
        1.0,
        2.220446049250313e-16,
        0.0,
        0.0,
        0.0,
        0.0,
        1.0
      ],
      "name": "angel_26k"
    },
    {
      "mesh": 0,
      "name": "angel_26k_angel_26k_u1_v1_0"
    }
  ],
  "samplers": [
    {
      "magFilter": 9729,
      "minFilter": 9987,
      "wrapS": 10497,
      "wrapT": 10497
    }
  ],
  "scene": 0,
  "scenes": [
    {
      "name": "Sketchfab_Scene",
      "nodes": [
        0
      ]
    }
  ],
  "textures": [
    {
      "sampler": 0,
      "source": 0
    },
    {
      "sampler": 0,
      "source": 1
    }
  ]
}
