{
  "accessors": [
    {
      "bufferView": 2,
      "componentType": 5126,
      "count": 1467,
      "max": [
        1.3024989366531372,
        24.6860294342041,
        1.9743196964263916
      ],
      "min": [
        -1.3024991750717163,
        22.496421813964844,
        -1.0849759578704834
      ],
      "type": "VEC3"
    },
    {
      "bufferView": 2,
      "byteOffset": 17604,
      "componentType": 5126,
      "count": 1467,
      "max": [
        1.0,
        0.9999247193336487,
        0.9998984336853027
      ],
      "min": [
        -1.0,
        -0.9968950748443604,
        -0.9998491406440735
      ],
      "type": "VEC3"
    },
    {
      "bufferView": 3,
      "componentType": 5126,
      "count": 1467,
      "max": [
        1.0,
        0.9896186590194702,
        0.9504809975624084,
        1.0
      ],
      "min": [
        -0.9999995231628418,
        -0.9997221827507019,
        -0.9899667501449585,
        -1.0
      ],
      "type": "VEC4"
    },
    {
      "bufferView": 1,
      "componentType": 5126,
      "count": 1467,
      "max": [
        1.0,
        0.9283705949783325
      ],
      "min": [
        0.0,
        0.0
      ],
      "type": "VEC2"
    },
    {
      "bufferView": 0,
      "componentType": 5125,
      "count": 6012,
      "type": "SCALAR"
    }
  ],
  "asset": {
    "extras": {
      "author": "Dizzy Engine (https://sketchfab.com/DizzyEngine)",
      "license": "CC-BY-4.0 (http://creativecommons.org/licenses/by/4.0/)",
      "source": "https://sketchfab.com/3d-models/sea-captain-hat-b8ef6610b4fa4a7cb6df3232c836349c",
      "title": "Sea Captain Hat"
    },
    "generator": "Sketchfab-14.87.0",
    "version": "2.0"
  },
  "bufferViews": [
    {
      "buffer": 0,
      "byteLength": 24048,
      "name": "floatBufferViews",
      "target": 34963
    },
    {
      "buffer": 0,
      "byteLength": 11736,
      "byteOffset": 24048,
      "byteStride": 8,
      "name": "floatBufferViews",
      "target": 34962
    },
    {
      "buffer": 0,
      "byteLength": 35208,
      "byteOffset": 35784,
      "byteStride": 12,
      "name": "floatBufferViews",
      "target": 34962
    },
    {
      "buffer": 0,
      "byteLength": 23472,
      "byteOffset": 70992,
      "byteStride": 16,
      "name": "floatBufferViews",
      "target": 34962
    }
  ],
  "buffers": [
    {
      "byteLength": 94464,
      "uri": "scene.bin"
    }
  ],
  "extensionsUsed": [
    "KHR_materials_specular"
  ],
  "images": [
    {
      "uri": "textures/sea_captain_hat_baseColor.png"
    },
    {
      "uri": "textures/sea_captain_hat_metallicRoughness.png"
    },
    {
      "uri": "textures/sea_captain_hat_normal.png"
    },
    {
      "uri": "textures/sea_captain_hat_specularf0.png"
    }
  ],
  "materials": [
    {
      "doubleSided": true,
      "extensions": {
        "KHR_materials_specular": {
          "specularColorFactor": [
            1.0,
            1.0,
            1.0
          ],
          "specularFactor": 1.0,
          "specularTexture": {
            "index": 3
          }
        }
      },
      "name": "sea_captain_hat",
      "normalTexture": {
        "index": 2
      },
      "pbrMetallicRoughness": {
        "baseColorTexture": {
          "index": 0
        },
        "metallicRoughnessTexture": {
          "index": 1
        }
      }
    }
  ],
  "meshes": [
    {
      "name": "sea_captain_hat_sea_captain_hat_0",
      "primitives": [
        {
          "attributes": {
            "NORMAL": 1,
            "POSITION": 0,
            "TANGENT": 2,
            "TEXCOORD_0": 3
          },
          "indices": 4,
          "material": 0,
          "mode": 4
        }
      ]
    }
  ],
  "nodes": [
    {
      "children": [
        1
      ],
      "matrix": [
        24.582542419433594,
        0.0,
        0.0,
        0.0,
        0.0,
        5.4584209195759556e-15,
        -24.582542419433594,
        0.0,
        0.0,
        24.582542419433594,
        5.4584209195759556e-15,
        0.0,
        0.0,
        0.0,
        0.0,
        1.0
      ],
      "name": "Sketchfab_model"
    },
    {
      "children": [
        2
      ],
      "matrix": [
        0.009999999776482582,
        0.0,
        0.0,
        0.0,
        0.0,
        0.0,
        0.009999999776482582,
        0.0,
        0.0,
        -0.009999999776482582,
        0.0,
        0.0,
        0.0,
        0.0,
        0.0,
        1.0
      ],
      "name": "749b5da477324c6098450ffc03af5ecc.fbx"
    },
    {
      "children": [
        3
      ],
      "name": "RootNode"
    },
    {
      "children": [
        4
      ],
      "name": "sea_captain_hat"
    },
    {
      "mesh": 0,
      "name": "sea_captain_hat_sea_captain_hat_0"
    }
  ],
  "samplers": [
    {
      "magFilter": 9729,
      "minFilter": 9987,
      "wrapS": 10497,
      "wrapT": 10497
    }
  ],
  "scene": 0,
  "scenes": [
    {
      "name": "Sketchfab_Scene",
      "nodes": [
        0
      ]
    }
  ],
  "textures": [
    {
      "sampler": 0,
      "source": 0
    },
    {
      "sampler": 0,
      "source": 1
    },
    {
      "sampler": 0,
      "source": 2
    },
    {
      "sampler": 0,
      "source": 3
    }
  ]
}
